<svg width="1920" height="402" viewBox="0 0 1920 402" fill="none" xmlns="http://www.w3.org/2000/svg">
<path d="M1960 545.117H-91V276.262L38.8597 167.936L147.511 236.129L222.556 167.936L282.591 214.268L309.673 186.208L348.826 206.111L479.991 65.8107L658.793 203.501L702.515 170.547L744.278 203.501L778.538 177.399L812.797 189.797L890.778 65.8107L922.101 88.6503L973.98 0.880859L1065.66 113.121L1081.98 91.2605L1143.65 148.686L1165.51 119.973L1225.54 178.704L1343.98 70.3786L1529.96 203.501L1570.09 166.958L1604.68 203.501L1655.91 148.686L1697.67 195.997L1798.16 81.1458L1960 245.265V545.117Z" fill="url(#paint0_linear_1_17)"/>
<path d="M-91 276.261L38.8597 167.936L52.2372 196.648L-24.4388 239.065L54.8474 200.564L62.0256 222.098L6.88418 256.358L63.0045 225.035L77.3608 261.252L-50.5412 328.792L77.3608 267.777L125.65 369.251L-25.7439 404.815H-91V276.261Z" fill="url(#paint1_linear_1_17)"/>
<path d="M147.511 236.128L257.141 318.351L248.005 272.998L186.338 223.73L245.721 268.104L239.522 238.086L205.589 216.225L238.217 234.171L228.102 195.017L211.788 185.555L227.123 192.08L222.556 167.936L147.511 236.128Z" fill="url(#paint2_linear_1_17)"/>
<path d="M282.591 214.269L349.479 263.538L325.987 226.668L291.727 210.354L324.029 223.079L316.198 204.154L300.863 198.281L315.546 201.87L309.673 186.209L282.591 214.269Z" fill="url(#paint3_linear_1_17)"/>
<path d="M479.991 65.8105L490.432 95.1758L442.795 135.308L496.631 108.88L444.1 174.788L511.64 123.236L529.259 155.211L464.982 197.302L529.259 162.716L563.845 224.709L498.263 257.337L563.845 229.277L632.364 342.17H563.193L348.826 206.111L479.991 65.8105Z" fill="url(#paint4_linear_1_17)"/>
<path d="M658.793 203.501L766.792 296.491L723.07 214.268L696.315 198.281L718.176 209.048L706.756 185.556L694.684 181.64L706.43 183.598L702.515 170.547L658.793 203.501Z" fill="url(#paint5_linear_1_17)"/>
<path d="M744.279 203.501L778.538 177.398L788.979 198.933L776.254 211.984L788.979 201.543L809.861 242.655L789.958 265.821L812.145 245.265L856.193 321.941L796.81 299.427L744.279 203.501Z" fill="url(#paint6_linear_1_17)"/>
<path d="M812.797 189.797L890.778 65.8105L898.935 78.8618L863.371 132.045L900.567 82.4509L921.775 136.287L893.062 174.136L923.406 139.224L968.759 249.507L894.694 313.458L812.797 189.797Z" fill="url(#paint7_linear_1_17)"/>
<path d="M922.101 88.6503L973.98 0.880859L980.832 24.0467L959.297 54.3909L980.832 25.6781L986.052 41.0133L970.391 65.8107L986.052 42.971L1002.37 87.6714L976.264 145.097L1002.37 93.8708L1075.13 272.999L981.484 214.268L922.101 88.6503Z" fill="url(#paint8_linear_1_17)"/>
<path d="M1065.66 113.121L1081.98 91.2598L1088.83 107.247L1075.13 123.888L1088.83 110.184L1114.93 164.02L1102.86 180.661L1116.89 165.652L1195.2 297.143L1165.83 300.732L1065.66 113.121Z" fill="url(#paint9_linear_1_17)"/>
<path d="M1143.65 148.685L1215.75 244.938L1206.62 207.742L1190.3 189.144L1177.25 173.483L1191.94 186.208L1181.82 163.368L1157.35 142.486L1179.54 156.516L1170.07 134.981L1162.24 129.435L1169.42 133.024L1165.51 119.973L1143.65 148.685Z" fill="url(#paint10_linear_1_17)"/>
<path d="M1225.54 178.704L1343.98 70.3789L1363.56 119.974L1304.18 155.212L1365.84 124.542L1388.03 178.704L1295.04 227.646L1388.03 182.619L1394.56 195.997L1328.32 238.413L1394.56 200.565L1453.61 328.141L1376.94 371.21L1225.54 178.704Z" fill="url(#paint11_linear_1_17)"/>
<path d="M1529.96 203.5L1614.47 276.261L1590.32 228.298L1554.11 199.259L1584.78 220.793L1577.6 199.259L1561.94 185.229L1576.62 196.975L1572.05 178.377L1565.85 175.44L1571.73 177.398L1570.09 166.957L1529.96 203.5Z" fill="url(#paint12_linear_1_17)"/>
<path d="M1604.68 203.501L1655.91 148.686L1660.47 169.894L1632.74 200.89L1661.45 171.851L1671.57 204.806L1652.32 220.141L1671.57 207.09L1688.86 255.706L1671.57 276.261L1688.86 262.231L1706.48 303.669L1679.07 309.542L1604.68 203.501Z" fill="url(#paint13_linear_1_17)"/>
<path d="M1697.67 195.997L1798.16 81.1465L1811.54 131.067L1766.19 171.2L1811.54 134.983L1832.75 182.946L1789.03 224.71L1832.75 189.145L1882.02 276.262L1830.14 321.942L1885.93 282.788L1912.69 331.73L1798.49 372.841L1697.67 195.997Z" fill="url(#paint14_linear_1_17)"/>
<defs>
<linearGradient id="paint0_linear_1_17" x1="934.5" y1="57.084" x2="934.5" y2="334.226" gradientUnits="userSpaceOnUse">
<stop offset="0.0039312" stop-color="#212135"/>
<stop offset="1" stop-color="#3F2135"/>
</linearGradient>
<linearGradient id="paint1_linear_1_17" x1="17.3297" y1="192.229" x2="17.3297" y2="312.897" gradientUnits="userSpaceOnUse">
<stop stop-color="#72365E"/>
<stop offset="1" stop-color="#3F2135" stop-opacity="0"/>
</linearGradient>
<linearGradient id="paint2_linear_1_17" x1="202.294" y1="183.316" x2="202.294" y2="259.919" gradientUnits="userSpaceOnUse">
<stop stop-color="#72365E"/>
<stop offset="1" stop-color="#3F2135" stop-opacity="0"/>
</linearGradient>
<linearGradient id="paint3_linear_1_17" x1="316.097" y1="194.035" x2="316.097" y2="233.497" gradientUnits="userSpaceOnUse">
<stop stop-color="#72365E"/>
<stop offset="1" stop-color="#3F2135" stop-opacity="0"/>
</linearGradient>
<linearGradient id="paint4_linear_1_17" x1="490.559" y1="94.2175" x2="490.559" y2="235.005" gradientUnits="userSpaceOnUse">
<stop stop-color="#72365E"/>
<stop offset="1" stop-color="#3F2135" stop-opacity="0"/>
</linearGradient>
<linearGradient id="paint5_linear_1_17" x1="712.836" y1="183.517" x2="712.836" y2="247.585" gradientUnits="userSpaceOnUse">
<stop stop-color="#72365E"/>
<stop offset="1" stop-color="#3F2135" stop-opacity="0"/>
</linearGradient>
<linearGradient id="paint6_linear_1_17" x1="800.221" y1="192.277" x2="800.221" y2="265.862" gradientUnits="userSpaceOnUse">
<stop stop-color="#72365E"/>
<stop offset="1" stop-color="#3F2135" stop-opacity="0"/>
</linearGradient>
<linearGradient id="paint7_linear_1_17" x1="890.681" y1="91.2598" x2="890.681" y2="217.423" gradientUnits="userSpaceOnUse">
<stop stop-color="#72365E"/>
<stop offset="1" stop-color="#3F2135" stop-opacity="0"/>
</linearGradient>
<linearGradient id="paint8_linear_1_17" x1="998.687" y1="29.0575" x2="998.687" y2="167.629" gradientUnits="userSpaceOnUse">
<stop stop-color="#72365E"/>
<stop offset="1" stop-color="#3F2135" stop-opacity="0"/>
</linearGradient>
<linearGradient id="paint9_linear_1_17" x1="1130.39" y1="112.859" x2="1130.39" y2="219.639" gradientUnits="userSpaceOnUse">
<stop stop-color="#72365E"/>
<stop offset="1" stop-color="#3F2135" stop-opacity="0"/>
</linearGradient>
<linearGradient id="paint10_linear_1_17" x1="1179.66" y1="132.901" x2="1179.66" y2="196.598" gradientUnits="userSpaceOnUse">
<stop stop-color="#72365E"/>
<stop offset="1" stop-color="#3F2135" stop-opacity="0"/>
</linearGradient>
<linearGradient id="paint11_linear_1_17" x1="1339.56" y1="101.287" x2="1339.56" y2="254.494" gradientUnits="userSpaceOnUse">
<stop stop-color="#72365E"/>
<stop offset="1" stop-color="#3F2135" stop-opacity="0"/>
</linearGradient>
<linearGradient id="paint12_linear_1_17" x1="1572.21" y1="178.18" x2="1572.21" y2="233.891" gradientUnits="userSpaceOnUse">
<stop stop-color="#72365E"/>
<stop offset="1" stop-color="#3F2135" stop-opacity="0"/>
</linearGradient>
<linearGradient id="paint13_linear_1_17" x1="1655.61" y1="165.256" x2="1655.61" y2="247.198" gradientUnits="userSpaceOnUse">
<stop stop-color="#72365E"/>
<stop offset="1" stop-color="#3F2135" stop-opacity="0"/>
</linearGradient>
<linearGradient id="paint14_linear_1_17" x1="1805.2" y1="111.286" x2="1805.2" y2="259.849" gradientUnits="userSpaceOnUse">
<stop stop-color="#72365E"/>
<stop offset="1" stop-color="#3F2135" stop-opacity="0"/>
</linearGradient>
</defs>
</svg>
