<svg width="195" height="100" viewBox="0 0 195 100" fill="none" xmlns="http://www.w3.org/2000/svg">
<g id="Group">
<g id="Group_2">
<g id="Group_3">
<g id="Group_4">
<g id="Group_5">
<g id="Group_6">
<g id="Group_7">
<g id="Group_8">
<g id="Group_9">
<path id="Vector" d="M2.4375 81.3758C0.73125 79.9133 0 77.9633 0 75.5258C0 73.0883 0.73125 71.1383 2.4375 69.6758C4.14375 68.2133 6.09374 67.2383 8.28749 67.2383C9.99374 67.2383 11.7 67.7258 13.1625 68.7008C14.625 69.6758 15.6 70.8945 16.0875 72.6008H11.4562C10.725 71.382 9.75 70.8945 8.53125 70.8945C7.06875 70.8945 6.09374 71.382 5.36249 72.1133C4.63124 72.8445 4.14374 74.0633 4.14374 75.5258C4.14374 76.9883 4.63124 77.9633 5.36249 78.9383C6.09374 79.6695 7.06875 80.157 8.53125 80.157C9.99375 80.157 10.9687 79.6695 11.4562 78.4508H16.0875C15.6 80.157 14.625 81.3758 13.1625 82.3508C11.7 83.3258 10.2375 83.8133 8.28749 83.8133C6.09374 83.8133 4.14375 83.082 2.4375 81.3758Z" fill="white"/>
<path id="Vector_2" d="M19.9875 81.6199C18.2813 80.1574 17.55 78.2074 17.55 75.7699C17.55 73.3324 18.2813 71.3824 19.9875 69.9199C21.6938 68.4574 23.6438 67.4824 25.8376 67.4824C28.0313 67.4824 29.9813 68.2137 31.6876 69.9199C33.1501 71.3824 34.1251 73.3324 34.1251 75.7699C34.1251 78.2074 33.3938 80.1574 31.6876 81.6199C29.9813 83.0824 28.2751 84.0574 25.8376 84.0574C23.6438 83.8137 21.6938 83.0824 19.9875 81.6199ZM29.0063 78.9387C29.7375 78.2074 30.225 76.9887 30.225 75.5262C30.225 74.0637 29.7375 73.0887 29.0063 72.1137C28.275 71.3824 27.3001 70.8949 25.8376 70.8949C24.6188 70.8949 23.4 71.3824 22.6688 72.1137C21.9375 72.8449 21.45 74.0637 21.45 75.5262C21.45 76.9887 21.9375 77.9637 22.6688 78.9387C23.4 79.6699 24.3751 80.1574 25.8376 80.1574C27.0563 80.1574 28.0313 79.9137 29.0063 78.9387Z" fill="white"/>
<path id="Vector_3" d="M54.8437 67.4824V83.5699H50.9436V74.5512L47.2874 83.5699H44.3624L40.7061 74.5512V83.5699H36.8062V67.4824H41.1936L45.8249 78.4512L50.4561 67.4824H54.8437Z" fill="white"/>
<path id="Vector_4" d="M70.4437 72.6016C70.4437 73.5766 69.9562 74.7953 69.2249 75.7703C68.7374 76.2578 68.2499 76.7453 67.2749 76.9891C66.5437 77.2328 65.5687 77.4766 64.3499 77.4766H61.9124V83.8141H58.0125V67.7266H64.3499C66.2999 67.7266 67.7624 68.2141 68.7374 69.1891C69.9562 69.9203 70.4437 71.1391 70.4437 72.6016ZM62.1562 74.5516H64.5937C65.0812 74.5516 65.5687 74.3078 66.0562 74.0641C66.2999 73.8203 66.5437 73.3328 66.5437 72.6016C66.5437 72.1141 66.2999 71.6265 66.0562 71.139C65.8124 70.6515 65.3249 70.6516 64.5937 70.6516H62.1562V74.5516Z" fill="white"/>
<path id="Vector_5" d="M83.1188 83.5699L82.1438 80.8887H76.2938L75.3188 83.5699H71.175L76.7813 67.4824H81.6563L87.2626 83.5699H83.1188ZM77.2688 77.9637H81.1688L79.2188 72.3574L77.2688 77.9637Z" fill="white"/>
<path id="Vector_6" d="M99.6937 67.4824H103.594V83.5699H99.6937L93.1124 73.3324V83.5699H89.2124V67.4824H93.1124L99.6937 77.7199V67.4824Z" fill="white"/>
<path id="Vector_7" d="M115.05 83.5699H111.15V78.4512L105.544 67.4824H109.931L113.1 74.7949L116.269 67.4824H120.656L115.05 78.4512V83.5699Z" fill="white"/>
<g id="Group_10">
<g id="Group_11">
<path id="Vector_8" d="M139.912 67.4824H143.812V83.5699H139.912L133.331 73.3324V83.5699H129.431V67.4824H133.331L139.912 77.7199V67.4824Z" fill="white"/>
</g>
</g>
<g id="Group_12">
<g id="Group_13">
<path id="Vector_9" d="M157.463 83.5699L156.488 80.8887H150.638L149.663 83.5699H145.519L151.125 67.4824H156L161.606 83.5699H157.463ZM151.856 77.9637H155.756L153.806 72.3574L151.856 77.9637Z" fill="white"/>
</g>
</g>
<g id="Group_14">
<g id="Group_15">
<path id="Vector_10" d="M181.838 67.4824V83.5699H177.938V74.5512L174.281 83.5699H171.356L167.7 74.5512V83.5699H163.8V67.4824H168.188L172.819 78.4512L177.45 67.4824H181.838Z" fill="white"/>
</g>
</g>
<g id="Group_16">
<g id="Group_17">
<path id="Vector_11" d="M195 67.482V70.407H189.15V73.8195H194.269V76.7445H189.15V80.4008H195V83.3258H185.25V67.2383H195V67.482Z" fill="white"/>
</g>
</g>
</g>
</g>
<g id="Group_18">
<path id="Vector_12" d="M37.7814 98.1941C36.8064 97.2191 36.3188 96.2441 36.3188 94.7816C36.3188 93.3191 36.8064 92.3441 37.7814 91.3691C38.7564 90.3941 39.7313 90.1504 41.1938 90.1504C42.1688 90.1504 42.9001 90.3941 43.6313 90.8816C44.3626 91.3691 44.8501 91.8566 45.3376 92.8316H44.1189C43.8751 92.3441 43.3876 91.8566 42.9001 91.6129C42.4126 91.3691 41.6813 91.1254 41.1938 91.1254C40.2188 91.1254 39.2439 91.3691 38.5126 92.1004C37.7814 92.8316 37.5376 93.8066 37.5376 95.0254C37.5376 96.2441 37.7814 97.2191 38.5126 97.9504C39.2439 98.6816 40.2188 98.9254 41.1938 98.9254C41.9251 98.9254 42.4126 98.6816 42.9001 98.4379C43.3876 98.1941 43.8751 97.7066 44.1189 97.2191H45.3376C44.8501 97.9504 44.3626 98.6816 43.6313 99.1691C42.9001 99.6566 42.1688 99.9004 41.1938 99.9004C39.9751 99.4129 38.7564 99.1691 37.7814 98.1941Z" fill="white"/>
<path id="Vector_13" d="M48.2625 98.1941C47.2875 97.2191 46.8 96.2441 46.8 94.7816C46.8 93.3191 47.2875 92.3441 48.2625 91.3691C49.2375 90.3941 50.2125 90.1504 51.675 90.1504C52.8938 90.1504 54.1126 90.6379 55.0876 91.3691C56.0626 92.3441 56.55 93.3191 56.55 94.7816C56.55 96.2441 56.0626 97.2191 55.0876 98.1941C54.1126 99.1691 53.1375 99.4129 51.675 99.4129C50.2125 99.6566 49.2375 99.1691 48.2625 98.1941ZM54.3563 97.7066C55.0875 96.9754 55.3313 96.0004 55.3313 94.7816C55.3313 93.5629 55.0875 92.5879 54.3563 91.8566C53.625 91.1254 52.65 90.8816 51.675 90.8816C50.7 90.8816 49.7251 91.1254 48.9938 91.8566C48.2626 92.5879 48.0188 93.5629 48.0188 94.7816C48.0188 96.0004 48.2626 96.9754 48.9938 97.7066C49.7251 98.4379 50.7 98.6816 51.675 98.6816C52.65 98.6816 53.625 98.4379 54.3563 97.7066Z" fill="white"/>
<path id="Vector_14" d="M67.0313 90.1504V99.4129H66.0563V92.3441L62.6438 99.4129H62.1563L58.7438 92.3441V99.4129H57.7688V90.1504H58.7438L62.4 97.9504L66.0563 90.1504H67.0313Z" fill="white"/>
<path id="Vector_15" d="M74.1002 90.8816C74.5877 91.3691 74.8314 92.1004 74.8314 92.8316C74.8314 93.5629 74.5877 94.2941 74.1002 94.7816C73.6127 95.2691 72.8814 95.5129 71.6627 95.5129H69.9564V99.4129H68.9814V90.1504H71.9064C72.8814 90.1504 73.6127 90.3941 74.1002 90.8816ZM69.9564 94.7816H71.9064C73.3689 94.7816 74.1002 94.0504 74.1002 92.8316C74.1002 91.6129 73.3689 90.8816 71.9064 90.8816H69.9564V94.7816Z" fill="white"/>
<path id="Vector_16" d="M82.8751 99.4129L82.1438 97.2191H77.7563L77.025 99.4129H76.05L79.4625 90.1504H80.4376L83.85 99.4129H82.8751ZM78.2438 96.4879H81.9L79.9501 91.3691L78.2438 96.4879Z" fill="white"/>
<path id="Vector_17" d="M91.6501 90.1504H92.6252V99.4129H91.6501L86.5314 91.6129V99.4129H85.5564V90.1504H86.5314L91.6501 97.9504V90.1504Z" fill="white"/>
<path id="Vector_18" d="M97.7437 99.4129H96.7687V95.7566L93.8438 90.1504H94.8187L97.2562 94.7816L99.6937 90.1504H100.669L97.7437 95.7566V99.4129Z" fill="white"/>
<path id="Vector_19" d="M106.519 92.5879C106.519 92.8316 106.519 93.3191 106.763 93.5629C107.006 93.8066 107.25 94.0504 107.494 94.0504C107.738 94.0504 108.225 94.2941 108.469 94.2941C108.713 94.2941 109.2 94.5379 109.444 94.5379C109.688 94.5379 110.175 94.7816 110.419 95.0254C110.663 95.2691 110.906 95.5129 111.15 95.7566C111.394 96.0004 111.394 96.4879 111.394 96.9754C111.394 97.7066 111.15 98.1941 110.663 98.9254C110.175 99.4129 109.444 99.6566 108.469 99.6566C107.494 99.6566 106.763 99.4129 106.275 98.9254C105.788 98.4379 105.3 97.9504 105.3 97.2191H106.275C106.275 97.7066 106.519 97.9504 106.763 98.1941C107.006 98.4379 107.494 98.6816 108.225 98.6816C108.956 98.6816 109.444 98.4379 109.688 98.1941C110.175 97.9504 110.175 97.4629 110.175 96.9754C110.175 96.4879 109.931 96.0004 109.688 95.7566C109.444 95.5129 108.956 95.2691 108.469 95.2691C107.981 95.2691 107.494 95.0254 107.006 95.0254C106.519 94.7816 106.031 94.5379 105.788 94.2941C105.544 93.8066 105.3 93.3191 105.3 92.5879C105.3 91.8566 105.544 91.3691 106.031 90.8816C106.519 90.3941 107.25 90.1504 108.225 90.1504C109.2 90.1504 109.688 90.3941 110.175 90.6379C110.663 91.1254 110.906 91.6129 111.15 92.3441H110.175C110.175 91.8566 109.931 91.6129 109.688 91.3691C109.444 91.1254 108.956 90.8816 108.225 90.8816C107.738 90.8816 107.25 91.1254 106.763 91.3691C106.763 91.6129 106.519 92.1004 106.519 92.5879Z" fill="white"/>
<path id="Vector_20" d="M113.588 90.1504H114.563V98.6816H117.975V99.4129H113.588V90.1504Z" fill="white"/>
<path id="Vector_21" d="M119.925 98.1941C118.95 97.2191 118.463 96.2441 118.463 94.7816C118.463 93.3191 118.95 92.3441 119.925 91.3691C120.9 90.3941 121.875 90.1504 123.338 90.1504C124.556 90.1504 125.775 90.6379 126.75 91.3691C127.725 92.3441 128.213 93.3191 128.213 94.7816C128.213 96.2441 127.725 97.2191 126.75 98.1941C125.775 99.1691 124.8 99.4129 123.338 99.4129C122.119 99.6566 120.9 99.1691 119.925 98.1941ZM126.019 97.7066C126.75 96.9754 126.994 96.0004 126.994 94.7816C126.994 93.5629 126.75 92.5879 126.019 91.8566C125.288 91.1254 124.313 90.8816 123.338 90.8816C122.363 90.8816 121.388 91.1254 120.656 91.8566C119.925 92.5879 119.681 93.5629 119.681 94.7816C119.681 96.0004 119.925 96.9754 120.656 97.7066C121.388 98.4379 122.363 98.6816 123.338 98.6816C124.313 98.6816 125.288 98.4379 126.019 97.7066Z" fill="white"/>
<path id="Vector_22" d="M130.406 98.1941C129.431 97.2191 128.944 96.2441 128.944 94.7816C128.944 93.3191 129.431 92.3441 130.406 91.3691C131.381 90.3941 132.356 90.1504 133.819 90.1504C134.794 90.1504 135.525 90.3941 136.256 90.8816C136.988 91.3691 137.475 91.8566 137.963 92.8316H136.744C136.5 92.3441 136.013 91.8566 135.525 91.6129C135.038 91.3691 134.306 91.1254 133.819 91.1254C132.844 91.1254 131.869 91.3691 131.138 92.1004C130.406 92.8316 130.163 93.8066 130.163 95.0254C130.163 96.2441 130.406 97.2191 131.138 97.9504C131.869 98.6816 132.844 98.9254 133.819 98.9254C134.794 98.9254 135.769 98.6816 136.5 97.9504C137.231 97.2191 137.475 96.4879 137.719 95.5129H133.331V94.7816H138.45V95.5129C138.206 96.7316 137.719 97.9504 136.988 98.6816C136.013 99.4129 135.038 99.9004 133.819 99.9004C132.356 99.4129 131.381 99.1691 130.406 98.1941Z" fill="white"/>
<path id="Vector_23" d="M146.494 99.4129L145.763 97.2191H141.375L140.644 99.4129H139.669L143.081 90.1504H144.056L147.469 99.4129H146.494ZM141.619 96.4879H145.275L143.325 91.3691L141.619 96.4879Z" fill="white"/>
<path id="Vector_24" d="M155.269 90.1504H156.244V99.4129H155.269L150.15 91.6129V99.4129H149.175V90.1504H150.15L155.269 97.9504V90.1504Z" fill="white"/>
</g>
</g>
</g>
</g>
</g>
</g>
</g>
<path id="Vector_25" d="M101.4 4.10781L105.544 12.3953C106.275 14.1016 107.981 15.3203 109.687 15.5641L118.95 16.7828C123.581 17.5141 125.531 23.1203 122.119 26.2891L115.537 32.8703C114.319 34.0891 113.587 36.0391 113.831 37.7453L115.294 47.0078C116.025 51.6391 111.15 55.0516 107.006 52.8578L98.7187 48.4703C97.0124 47.4953 95.0624 47.4953 93.3562 48.4703L85.0686 52.8578C80.9249 55.0516 76.0499 51.6391 76.7812 47.0078L78.2436 37.7453C78.4874 35.7953 77.9999 34.0891 76.5374 32.8703L69.9562 26.2891C66.5437 23.1203 68.4937 17.2703 73.1249 16.7828L82.3874 15.5641C84.3374 15.3203 85.7999 14.1016 86.5312 12.3953L90.6749 4.10781C93.3562 -0.0359374 99.2061 -0.0359374 101.4 4.10781Z" stroke="white" stroke-width="1.676" stroke-miterlimit="10"/>
</g>
</svg>
